<svg width="489" height="475" viewBox="0 0 489 475" fill="none" xmlns="http://www.w3.org/2000/svg">
<path fill-rule="evenodd" clip-rule="evenodd" d="M248.634 318.588C252.116 314.966 249.573 311.628 262.687 302.783C265.027 301.205 270.843 299.784 274.106 298.501C280.346 296.048 293.475 293.832 293.475 293.832C293.475 293.832 299.781 293.519 307.036 288.825C314.291 284.13 316.872 279.553 324.437 274.45C329.954 270.729 335.965 269.312 340.692 266.124C345.418 262.936 351.542 257.928 349.312 254.141C319.263 203.114 289.431 193.686 266.721 183.901C230.71 168.385 207.569 123.63 199.015 158.81C196.845 167.734 199.023 172.417 192.763 184.616C187.779 194.326 182.189 199.357 179.786 204.86C173.132 220.094 173.963 234.507 169.189 244.89C160.852 263.023 153.865 262.666 146.658 276.087C145.707 277.858 144.81 280.057 143.486 282.02C140.852 285.924 137.526 289.891 135.708 294.671C134.238 298.535 133.768 307.129 133.768 307.129L113.456 334.285C113.456 334.285 109.407 341.002 118.467 349.114C127.528 357.226 149.88 373.621 149.88 373.621C149.88 373.621 157.2 368.529 165.904 368.064C174.608 367.598 182.118 374.351 182.118 374.351C182.118 374.351 193.957 359.834 198.789 353.374C200.116 351.6 203.011 347.428 208.815 343.098C215.179 338.35 222.332 338.264 232.21 332.292C237.76 328.936 245.153 322.21 248.634 318.588Z" fill="#5B60FD"/>
<path fill-rule="evenodd" clip-rule="evenodd" d="M332.39 218.129C331.787 217.722 331.01 218.623 331.217 219.321C331.416 219.989 332.066 220.39 332.664 220.76L332.742 220.808C339.021 224.7 341.905 233.289 339.246 240.182C338.391 240.22 337.564 239.931 336.741 239.644C335.823 239.323 334.908 239.004 333.964 239.142C333.138 239.261 332.406 239.72 331.701 240.167L325.421 244.158C324.657 244.644 323.795 245.314 323.874 246.216C324.044 248.181 322.307 250.183 320.339 250.039C318.372 249.894 316.961 247.328 318.081 245.704C318.164 245.584 318.258 245.469 318.351 245.354C318.556 245.104 318.76 244.855 318.85 244.548C318.966 244.147 318.864 243.718 318.762 243.313L316.685 235.071C316.554 234.554 316.418 234.023 316.109 233.587C315.479 232.7 314.297 232.418 313.214 232.319C313.042 232.304 312.869 232.29 312.695 232.277L312.695 232.277C311.772 232.207 310.836 232.136 310.044 231.677C309.102 231.132 308.523 229.775 309.211 228.932C312.82 224.51 317.328 220.208 322.992 219.508C323.15 219.489 323.31 219.472 323.471 219.455C324.293 219.367 325.127 219.278 325.817 218.84C326.642 218.317 327.091 217.051 326.406 216.354C325.968 215.909 325.258 215.842 324.577 215.778C323.758 215.702 322.983 215.629 322.775 214.908C322.693 214.624 322.75 214.319 322.809 214.029L324.598 205.104C324.107 203.975 322.279 204.411 321.607 205.442C321.274 205.953 321.085 206.537 320.896 207.121C320.704 207.717 320.511 208.312 320.167 208.829C318.786 210.899 315.766 210.829 313.307 210.443C304.508 209.063 295.878 206.613 287.666 203.164C287.289 203.006 286.887 202.823 286.684 202.469C286.422 202.014 286.576 201.443 286.736 200.943L290.907 187.875C291.242 186.823 292.002 185.522 293.065 185.822L322.591 194.146C323.061 194.278 323.551 194.423 323.899 194.764C324.615 195.466 324.433 196.66 324.06 197.59C324.002 197.735 323.94 197.881 323.878 198.027L323.878 198.027C323.542 198.821 323.196 199.637 323.368 200.466C323.572 201.447 325.023 202.118 325.58 201.284C327.609 195.801 329.765 190.121 333.972 186.061C334.769 185.293 335.703 184.561 336.805 184.461C339.257 184.236 340.782 187.041 341.4 189.423C342.527 193.771 342.913 198.31 342.535 202.786C342.46 203.678 342.412 204.721 343.09 205.303C344.05 206.127 345.538 205.305 346.341 204.327C346.468 204.172 346.594 204.011 346.721 203.848C347.397 202.982 348.102 202.077 349.159 201.945C349.714 201.876 350.268 202.045 350.801 202.212L377.861 210.686C376.274 215.621 374.575 220.521 372.766 225.379C372.587 225.859 372.375 226.376 371.929 226.627C371.4 226.923 370.742 226.739 370.166 226.549L343.821 217.838C342.698 217.466 342.48 215.925 342.845 214.799C342.977 214.392 343.157 213.998 343.337 213.605C343.655 212.912 343.971 212.221 344.016 211.467C344.086 210.286 342.948 208.939 341.878 209.446C341.27 209.734 341.022 210.459 340.887 211.119C340.781 211.634 340.705 212.16 340.629 212.687C340.433 214.042 340.238 215.397 339.538 216.556C338.127 218.892 334.651 219.657 332.39 218.129ZM320.306 242.731C320.326 242.82 320.347 242.911 320.4 242.985C320.548 243.197 320.891 243.176 321.09 243.01C321.289 242.843 321.38 242.584 321.462 242.338L323.651 235.782C323.765 235.44 323.872 235.039 323.67 234.742C323.511 234.51 323.216 234.423 322.944 234.352L319.421 233.437C319.237 233.389 319.042 233.341 318.86 233.396C318.364 233.547 318.375 234.247 318.491 234.753L320.306 242.731ZM326.168 235.612C326.333 235.575 326.505 235.62 326.668 235.666L331.524 237.015C331.765 237.225 331.485 237.6 331.223 237.784L324.077 242.809C323.727 243.055 323.355 243.309 322.928 243.348C323.156 240.74 324.097 238.198 325.621 236.071C325.763 235.873 325.93 235.665 326.168 235.612Z" fill="white"/>
<path fill-rule="evenodd" clip-rule="evenodd" d="M174.864 323.525C173.594 321.332 173.832 318.363 175.436 316.401C176.399 315.222 176.458 313.493 175.931 312.065C175.404 310.636 174.377 309.452 173.308 308.368C169.894 304.906 165.423 301.972 160.567 302.21C155.302 302.468 150.921 306.367 147.785 310.604C146.418 312.451 145.143 314.587 145.317 316.878C145.423 318.287 146.071 319.591 146.706 320.853C148.006 323.434 149.321 326.038 151.149 328.277C152.977 330.515 155.388 332.387 158.201 333.047C160.161 333.507 162.5 333.228 163.738 331.64C164.707 330.396 166.627 330.783 168.188 330.558C170.32 330.252 171.999 328.65 173.524 327.13C174.504 326.151 175.559 324.723 174.864 323.525Z" fill="white"/>
<path fill-rule="evenodd" clip-rule="evenodd" d="M238.266 326.888C242.056 323.723 245.846 320.558 249.636 317.394C249.659 318.996 248.407 320.296 247.228 321.382C240.298 327.768 232.628 333.699 223.652 336.57C214.245 339.579 205.764 345.417 199.596 353.131C198.999 352.112 199.74 350.85 200.489 349.937C205.532 343.786 212.287 339.054 219.792 336.417C223.112 335.25 226.587 334.479 229.745 332.924C232.876 331.383 235.588 329.124 238.266 326.888Z" fill="white"/>
<path fill-rule="evenodd" clip-rule="evenodd" d="M151.461 267.11C154.771 263.407 158.982 260.52 161.87 256.48C162.181 256.499 162.492 256.518 162.803 256.537C162.179 259.507 159.392 261.414 157.028 263.316C152.532 266.932 148.872 271.579 146.41 276.797C145.229 279.3 144.281 281.992 142.403 284.026C137.927 288.871 135.045 295.166 134.302 301.72C133.781 301.465 133.163 301.414 132.607 301.582C133.748 297.187 135.395 292.923 137.505 288.902C138.781 286.469 140.224 284.129 141.666 281.791C142.878 279.826 144.09 277.86 145.302 275.894C147.182 272.846 149.075 269.78 151.461 267.11V267.11Z" fill="white"/>
<path fill-rule="evenodd" clip-rule="evenodd" d="M197.877 167.862C197.822 169.282 197.837 170.71 197.632 172.117C197.361 173.978 196.712 175.761 196.048 177.521C194.041 182.84 191.843 188.144 188.615 192.825C187.112 195.005 185.396 197.033 183.906 199.223C179.238 206.085 176.945 214.319 175.882 222.55C175.8 223.191 175.708 223.87 175.299 224.369C174.89 224.868 174.041 225.063 173.607 224.585C175.529 215.903 177.532 207.02 182.311 199.521C184.44 196.18 187.08 193.185 189.174 189.822C191.257 186.477 192.772 182.814 194.197 179.14C195.146 176.696 196.064 174.219 196.48 171.63C197.136 167.556 196.549 163.228 198.121 159.412C198.311 158.949 198.838 158.421 199.212 158.754C198.444 161.731 197.996 164.79 197.877 167.862Z" fill="white"/>
<path fill-rule="evenodd" clip-rule="evenodd" d="M77.2794 278.792C78.9849 279.734 81.0691 279.965 82.9398 279.421C83.0541 279.604 83.1684 279.788 83.2827 279.972C82.4989 281.666 82.9303 283.843 84.3009 285.109C84.7228 285.499 84.2806 286.273 83.7127 286.36C83.1447 286.446 82.6072 286.116 82.1138 285.822C81.4944 285.453 80.8384 285.113 80.1251 285.008C79.4118 284.903 78.6255 285.066 78.1237 285.584C77.756 285.963 77.056 285.771 76.7678 285.329C76.4796 284.886 76.5047 284.31 76.611 283.793C76.7172 283.275 76.8947 282.763 76.8771 282.235C76.8565 281.618 76.5705 281.041 76.2541 280.511C76.0569 280.18 75.8403 279.843 75.7918 279.461C75.7434 279.079 75.9237 278.635 76.2927 278.524C76.6288 278.424 76.9723 278.622 77.2794 278.792L77.2794 278.792Z" fill="white"/>
<path fill-rule="evenodd" clip-rule="evenodd" d="M314.609 284.259C309.418 288.885 303.122 292.263 296.396 294.029C295.24 294.333 293.695 294.426 293.168 293.352C300.061 292.088 306.612 288.999 311.974 284.486C315.545 281.479 318.593 277.86 322.362 275.104C326.629 271.984 331.645 270.094 336.389 267.761C341.132 265.427 345.817 262.454 348.554 257.932C348.81 257.509 349.08 257.046 349.537 256.86C349.995 256.673 350.661 256.989 350.593 257.478C350.572 257.627 350.49 257.759 350.408 257.885C348.132 261.4 345.102 264.424 341.583 266.694C335.934 270.339 329.145 272.006 323.7 275.949C320.372 278.358 317.677 281.525 314.609 284.259Z" fill="white"/>
<path fill-rule="evenodd" clip-rule="evenodd" d="M266.384 172.802C266.801 173.288 267.429 173.938 267.017 174.429C266.633 174.886 265.917 174.479 265.412 174.16C264.053 173.303 262.199 173.306 260.843 174.169C260.306 174.511 259.656 173.738 259.773 173.113C259.89 172.487 260.394 172.017 260.7 171.46C261.177 170.59 261.154 169.517 260.861 168.57C260.568 167.622 260.029 166.774 259.496 165.938C259.361 165.726 259.502 165.424 259.726 165.312C259.951 165.2 260.22 165.232 260.462 165.298C262.12 165.753 263.19 167.598 264.894 167.83C265.685 167.937 266.526 167.673 267.273 167.956C267.215 168.514 266.699 168.89 266.343 169.324C265.546 170.298 265.564 171.847 266.384 172.802L266.384 172.802Z" fill="white"/>
<path fill-rule="evenodd" clip-rule="evenodd" d="M111.734 271.866C112.844 271.913 113.836 272.548 114.908 272.841C116.044 273.151 117.284 273.064 118.365 272.598C117.512 274.262 117.652 276.39 118.716 277.928C118.967 278.291 119.251 278.83 118.907 279.108C118.819 279.179 118.705 279.211 118.594 279.233C116.759 279.595 114.779 277.922 113.119 278.781C112.533 279.084 111.891 278.338 111.904 277.679C111.917 277.02 112.278 276.412 112.338 275.755C112.458 274.431 111.347 273.139 111.734 271.866V271.866Z" fill="white"/>
<path fill-rule="evenodd" clip-rule="evenodd" d="M134.009 229.239C133.806 229.67 133.211 229.76 132.755 229.619C132.3 229.478 131.91 229.174 131.459 229.018C130.299 228.614 128.941 229.236 127.819 228.734C127.463 228.575 127.127 228.227 127.203 227.844C127.233 227.692 127.324 227.56 127.4 227.424C127.943 226.457 127.724 225.242 127.322 224.209C126.921 223.175 126.348 222.187 126.204 221.088C126.168 220.814 126.165 220.515 126.321 220.288C126.478 220.06 126.846 219.968 127.032 220.172C127.707 220.916 128.382 221.66 129.057 222.404C129.448 222.835 129.856 223.278 130.391 223.505C130.926 223.732 131.628 223.678 131.989 223.223C132.241 222.906 132.801 223.185 132.899 223.577C132.996 223.97 132.821 224.371 132.72 224.762C132.469 225.738 132.698 226.826 133.323 227.617C133.709 228.106 134.274 228.675 134.009 229.239V229.239Z" fill="white"/>
<path fill-rule="evenodd" clip-rule="evenodd" d="M120.216 327.479C120.444 327.011 121.252 327.417 121.242 327.937C121.231 328.457 120.791 328.849 120.412 329.205C118.006 331.466 116.897 334.848 116.764 338.148C116.695 339.876 116.921 341.743 118.07 343.037C118.693 343.74 119.636 344.493 119.341 345.385C118.107 345.104 116.99 344.343 116.278 343.297C115.021 341.452 115.114 339.026 115.402 336.813C115.733 334.27 116.373 331.551 118.334 329.898C119.12 329.235 119.766 328.405 120.216 327.479Z" fill="white"/>
<path fill-rule="evenodd" clip-rule="evenodd" d="M303.633 308.523C304.06 307.086 303.926 305.491 303.266 304.145C303.018 303.638 303.751 303.113 304.286 303.296C304.821 303.478 305.13 304.019 305.431 304.497C305.824 305.119 306.305 305.722 306.97 306.037C307.635 306.353 308.519 306.304 309.009 305.755C309.202 305.539 309.594 305.652 309.739 305.902C309.883 306.153 309.843 306.469 309.76 306.746C309.436 307.827 308.53 308.821 308.776 309.923C308.863 310.311 309.088 310.652 309.245 311.018C309.401 311.384 309.484 311.822 309.287 312.168C309.09 312.514 308.521 312.636 308.298 312.307C307.519 311.159 306.18 310.412 304.795 310.351C304.394 310.333 303.938 310.35 303.658 310.062C303.28 309.675 303.479 309.041 303.633 308.523L303.633 308.523Z" fill="white"/>
<path fill-rule="evenodd" clip-rule="evenodd" d="M128.548 336.543C130.316 336.632 132.107 336.19 133.631 335.29C133.979 335.084 134.295 335.603 134.371 336C134.587 337.133 134.803 338.266 135.019 339.399C135.436 339.563 135.897 339.769 136.059 340.187C136.222 340.606 135.775 341.192 135.388 340.964C133.893 340.081 131.81 340.356 130.597 341.598C130.332 341.053 130.309 340.427 130.204 339.831C129.989 338.604 129.405 337.445 128.548 336.543Z" fill="white"/>
<path fill-rule="evenodd" clip-rule="evenodd" d="M225.315 322.994C224.001 322.114 222.16 322.102 220.835 322.966C219.616 321.931 220.447 319.837 219.695 318.426C219.539 318.133 219.316 317.874 219.207 317.561C219.098 317.247 219.146 316.838 219.433 316.672C220.444 317.346 221.674 317.684 222.887 317.624C223.202 317.608 223.529 317.568 223.824 317.68C224.118 317.793 224.36 318.126 224.245 318.419C223.654 319.932 224.497 321.591 225.315 322.994Z" fill="white"/>
<path fill-rule="evenodd" clip-rule="evenodd" d="M171.167 346.307C171.289 346.097 171.481 345.929 171.705 345.835C172.762 347.069 174.581 347.589 176.131 347.1C176.339 348.656 176.887 350.165 177.726 351.492C177.667 351.684 177.404 351.696 177.205 351.67C175.622 351.462 174.039 351.254 172.455 351.045C172.726 349.38 172.244 347.606 171.167 346.307Z" fill="white"/>
<path fill-rule="evenodd" clip-rule="evenodd" d="M295.694 245.323C295.467 245.339 295.227 245.369 295.049 245.51C294.889 245.637 294.799 245.839 294.632 245.956C294.464 246.074 294.155 246.021 294.154 245.817C295.197 243.857 294.544 241.464 293.87 239.349C293.848 239.134 294.138 239.002 294.339 239.081C294.539 239.16 294.663 239.357 294.785 239.535C295.312 240.308 296.072 240.944 296.969 241.21C297.866 241.476 298.9 241.336 299.626 240.747C299 242.345 298.379 244.183 299.156 245.714C298.039 245.373 296.859 245.24 295.694 245.323L295.694 245.323Z" fill="white"/>
<path fill-rule="evenodd" clip-rule="evenodd" d="M187.266 360.705C188.869 358.333 190.518 355.844 190.874 353.004C190.917 352.66 190.952 352.288 191.181 352.029C191.41 351.769 191.916 351.74 192.05 352.06C192.701 353.617 191.872 355.362 191.062 356.842C190.57 357.742 190.077 358.642 189.585 359.543C189.342 359.988 189.083 360.45 188.665 360.737C188.246 361.024 187.617 361.072 187.266 360.705L187.266 360.705Z" fill="white"/>
<path fill-rule="evenodd" clip-rule="evenodd" d="M272.014 300.022C272.01 299.389 272.634 298.957 273.193 298.659C275.818 297.259 278.619 296.189 281.508 295.483C283.826 294.916 286.208 294.582 288.594 294.622C287.005 295.867 284.88 296.1 282.902 296.503C280.191 297.055 277.579 298.002 274.979 298.946C273.991 299.305 273.002 299.664 272.014 300.022Z" fill="white"/>
<path fill-rule="evenodd" clip-rule="evenodd" d="M137.174 360.76C135.709 359.784 134.274 358.763 132.873 357.698C132.528 357.436 132.185 357.172 131.843 356.908C128.986 354.704 126.128 352.499 123.355 350.19C123.032 349.921 122.764 349.305 123.168 349.189C123.334 349.141 123.502 349.245 123.644 349.343C126.635 351.423 129.626 353.503 132.617 355.583C134.63 356.983 136.707 358.45 137.942 360.569C138.034 360.728 137.864 360.936 137.681 360.952C137.497 360.968 137.327 360.862 137.174 360.76Z" fill="white"/>
<path fill-rule="evenodd" clip-rule="evenodd" d="M187.514 345.186C187.956 345.594 188.348 346.425 187.798 346.668C182.714 342.324 177.69 337.909 172.73 333.424C172.563 333.274 172.388 333.109 172.335 332.89C172.282 332.672 172.419 332.394 172.643 332.391C172.756 332.389 172.858 332.453 172.952 332.516C176.019 334.562 178.741 337.076 181.448 339.579C183.47 341.448 185.492 343.317 187.514 345.186Z" fill="white"/>
<path fill-rule="evenodd" clip-rule="evenodd" d="M103.406 322.572C103.302 322.881 103.198 323.189 103.094 323.498C96.0281 323.211 88.8914 324.954 82.7528 328.465C82.4926 328.255 82.2783 327.988 82.1291 327.689C87.4415 324.164 93.7849 322.215 100.16 322.147C101.258 322.135 102.38 322.183 103.406 322.572Z" fill="white"/>
<path fill-rule="evenodd" clip-rule="evenodd" d="M186.97 412.921C191.262 404.834 193.582 395.709 193.674 386.554C193.693 384.723 193.624 382.892 193.554 381.061C193.526 380.312 193.498 379.562 193.47 378.813C195.145 380.116 195.19 382.586 195.083 384.706C194.606 394.213 193.933 404.306 188.385 412.041C188.042 412.52 187.547 413.041 186.97 412.921L186.97 412.921Z" fill="white"/>
<path fill-rule="evenodd" clip-rule="evenodd" d="M163.014 308.764C163.364 308.253 164.045 308.105 164.662 308.056C165.996 307.949 167.409 308.135 168.507 308.902C169.604 309.669 170.291 311.115 169.889 312.392C169.679 313.056 168.936 313.433 168.239 313.441C167.543 313.448 166.879 313.167 166.24 312.89C164.925 312.322 163.488 311.634 162.952 310.306C162.751 309.809 162.712 309.206 163.014 308.764L163.014 308.764Z" fill="#FFB61D"/>
<path fill-rule="evenodd" clip-rule="evenodd" d="M81.582 377.525C80.5914 377.91 79.4151 377.777 78.5357 377.18C77.6562 376.583 77.0981 375.539 77.0902 374.476C77.0805 373.165 77.847 371.971 78.7319 371.003C79.6321 370.017 80.6848 369.172 81.8409 368.505C82.2816 368.251 82.7599 368.017 83.2687 368.021C83.6616 368.024 84.0414 368.17 84.3824 368.365C85.5329 369.024 86.3129 370.288 86.3857 371.612C86.4584 372.936 85.8215 374.278 84.7501 375.059C83.6627 375.851 82.836 377.037 81.582 377.525ZM81.3632 374.149C82.1582 373.55 82.9158 372.901 83.6299 372.207C83.9201 371.925 84.2188 371.605 84.267 371.203C84.3152 370.802 83.965 370.341 83.5731 370.441C82.0736 370.823 80.7797 371.939 80.1809 373.366C80.0425 373.696 79.962 374.132 80.232 374.367C80.5468 374.641 81.03 374.4 81.3632 374.149L81.3632 374.149Z" fill="white"/>
<path fill-rule="evenodd" clip-rule="evenodd" d="M123.15 312.245C123.296 312.159 123.486 312.317 123.498 312.486C123.509 312.63 123.436 312.763 123.355 312.886L117.444 321.438V321.438C117.208 321.779 116.61 322.086 116.486 321.689C116.436 321.53 116.534 321.366 116.628 321.228C118.709 318.167 120.885 315.171 123.15 312.245Z" fill="white"/>
<path fill-rule="evenodd" clip-rule="evenodd" d="M156.402 305.528C155.466 306.23 154.717 307.171 154.213 308.226C153.81 309.07 152.831 309.441 151.944 309.735C151.086 310.019 150.228 310.304 149.371 310.588C149.178 310.4 149.341 310.079 149.51 309.869C151.178 307.788 153.08 305.837 155.415 304.55C157.75 303.263 160.576 302.699 163.128 303.471C160.773 303.765 158.301 304.105 156.402 305.528Z" fill="white"/>
<path fill-rule="evenodd" clip-rule="evenodd" d="M151.524 316.791C152.76 318.435 153.214 320.641 152.73 322.64C152.604 323.162 152.373 323.721 151.886 323.948C151.393 324.177 150.781 323.972 150.401 323.584C150.021 323.195 149.831 322.661 149.7 322.133C149.295 320.495 149.363 318.743 149.895 317.142C150.029 316.736 150.279 316.275 150.706 316.255C151.046 316.239 151.32 316.519 151.524 316.791V316.791Z" fill="#FFB61D"/>
<path fill-rule="evenodd" clip-rule="evenodd" d="M254.664 351.55C252.496 352.236 249.639 352.268 248.479 350.311C247.675 348.956 248.069 347.226 248.591 345.739C249.308 343.696 250.226 341.723 251.328 339.859C252.076 338.592 252.938 337.091 252.341 335.747C248.851 327.888 250.06 318.163 255.312 311.355C260.564 304.546 269.62 300.911 278.133 302.13C279.82 302.372 281.886 302.649 282.913 301.288C284.977 298.552 287.558 295.899 290.911 295.193C292.15 294.933 293.675 295.078 294.333 296.159C294.645 296.671 294.695 297.296 294.711 297.895C294.808 301.619 293.844 305.365 291.963 308.58C291.032 310.172 291.058 312.159 291.472 313.956C291.886 315.752 292.651 317.449 293.134 319.228C295.052 326.297 292.082 334.203 286.538 338.99C280.995 343.776 273.262 345.603 265.985 344.773C265.155 344.678 264.159 344.615 263.648 345.276C261.379 348.21 258.2 350.43 254.664 351.55ZM260.274 340.038C260.673 339.981 261.024 339.751 261.356 339.521C268.539 334.553 273.696 327.235 278.698 320.075C280.867 316.969 283.036 313.864 285.206 310.758C285.649 310.124 286.114 309.384 285.935 308.632C285.818 308.137 285.442 307.751 285.064 307.411C281.759 304.444 277.139 303.136 272.712 303.482C268.284 303.828 264.061 305.734 260.563 308.47C255.785 312.206 252.213 317.698 251.568 323.729C250.922 329.761 253.521 336.227 258.625 339.504C259.122 339.823 259.689 340.122 260.274 340.038M288.777 314.877C283.032 324.578 275.902 333.457 267.67 341.161C267.096 341.698 267.397 342.741 268.055 343.171C268.712 343.602 269.556 343.59 270.34 343.537C275.077 343.22 279.813 341.936 283.787 339.338C287.761 336.741 290.92 332.757 292.035 328.142C293.151 323.527 292.047 318.318 288.777 314.877M250.487 350.028C251.17 350.558 252.137 350.49 252.98 350.295C256.283 349.533 259.031 347.303 261.56 345.047C271.77 335.94 280.593 325.28 287.629 313.548C290.449 308.847 293.053 303.694 292.904 298.214C292.891 297.739 292.844 297.23 292.539 296.865C291.899 296.096 290.652 296.464 289.798 296.984C287.68 298.272 285.955 300.101 284.257 301.907C283.665 302.537 283.05 303.505 283.596 304.175C284.196 304.91 285.393 304.317 286.016 303.602C286.64 302.887 287.393 301.974 288.314 302.201C289.574 302.511 289.377 304.364 288.848 305.549C284.849 314.501 278.787 322.349 272.784 330.101C271.367 331.93 269.947 333.764 268.329 335.416C266.939 336.835 265.413 338.111 263.889 339.385C262.464 340.577 261.039 341.768 259.614 342.96C258.891 343.563 258.135 344.185 257.222 344.413C256.309 344.642 255.192 344.351 254.772 343.508C254.307 342.576 254.847 341.49 255.12 340.484C255.393 339.479 255.067 338.036 254.025 338.011C252.287 340.601 250.938 343.453 250.038 346.44C249.667 347.67 249.472 349.24 250.487 350.028ZM286.948 306.801C287.314 305.969 287.679 305.137 288.045 304.305C288.156 304.05 288.245 303.699 288.018 303.539C287.819 303.399 287.548 303.534 287.346 303.668C286.76 304.056 286.127 304.511 285.978 305.197C285.832 305.87 286.284 306.618 286.948 306.801ZM256.059 342.452C256.047 342.535 256.035 342.621 256.059 342.701C256.162 343.045 256.705 342.899 256.924 342.614C257.143 342.329 257.339 341.932 257.698 341.928C258.216 341.923 258.387 341.094 257.981 340.774C257.574 340.454 256.936 340.629 256.594 341.018C256.253 341.407 256.138 341.941 256.059 342.452L256.059 342.452Z" fill="white"/>
<path fill-rule="evenodd" clip-rule="evenodd" d="M169.241 322.08C168.847 322.533 168.223 322.881 167.658 322.68C167.217 322.524 166.941 322.08 166.803 321.633C166.6 320.976 166.634 320.223 167.008 319.646C167.382 319.069 168.132 318.722 168.79 318.923C169.393 319.108 169.812 319.717 169.867 320.346C169.923 320.975 169.656 321.604 169.241 322.08L169.241 322.08Z" fill="#FFB61D"/>
<path fill-rule="evenodd" clip-rule="evenodd" d="M164.854 319.682C164.928 320.023 164.885 320.415 164.637 320.66C164.226 321.068 163.521 320.864 163.045 320.536C162.588 320.221 162.196 319.815 161.898 319.347C161.81 319.209 161.734 319.016 161.843 318.894C162.269 318.416 162.971 318.205 163.59 318.367C164.209 318.529 164.716 319.057 164.854 319.682L164.854 319.682Z" fill="#FFB61D"/>
<path fill-rule="evenodd" clip-rule="evenodd" d="M289.479 332.193C289.264 332.541 288.818 332.903 288.502 332.645C289.157 331.246 289.813 329.846 290.468 328.447C290.516 329.757 290.167 331.078 289.479 332.193Z" fill="#E7EAEE"/>
<path fill-rule="evenodd" clip-rule="evenodd" d="M159.84 326.308C160.395 326.458 160.956 326.696 161.317 327.144C161.678 327.592 161.773 328.293 161.403 328.734C161.043 329.165 160.403 329.209 159.843 329.173C159.206 329.132 158.544 329.017 158.033 328.634C157.523 328.25 157.217 327.531 157.481 326.95C157.849 326.141 158.982 326.076 159.84 326.308L159.84 326.308Z" fill="#FFB61D"/>
<path fill-rule="evenodd" clip-rule="evenodd" d="M269.149 341.79C269.964 341.983 270.779 342.176 271.595 342.369C271.725 342.4 271.779 342.594 271.683 342.687C270.474 342.885 269.209 342.723 268.089 342.227C268.027 341.778 268.708 341.685 269.149 341.79L269.149 341.79Z" fill="#E7EAEE"/>
<path fill-rule="evenodd" clip-rule="evenodd" d="M121.2 414.149C120.414 413.94 119.599 413.632 119.105 412.985C118.787 412.568 118.634 412.046 118.556 411.526C118.247 409.459 119.079 407.311 120.521 405.799C121.962 404.286 123.957 403.372 126.012 402.992C126.758 402.853 127.548 402.785 128.261 403.048C129.374 403.459 130.072 404.626 130.239 405.802C130.406 406.977 130.131 408.168 129.806 409.31C129.508 410.362 129.143 411.44 128.388 412.231C127.982 412.657 127.482 412.979 126.986 413.296C126.49 413.615 125.989 413.935 125.44 414.149C124.1 414.671 122.589 414.518 121.2 414.149ZM122.403 408.984C121.738 408.869 120.829 408.901 120.665 409.555C120.525 410.116 120.525 410.711 120.666 411.271C121.496 410.752 122.126 409.922 122.403 408.984ZM122.304 406.299C121.891 406.749 121.465 407.223 121.299 407.811C121.758 407.904 122.25 407.953 122.685 407.778C123.121 407.604 123.471 407.142 123.377 406.682C123.283 406.223 122.62 405.953 122.304 406.299M125.919 408.754C126.082 409.075 126.254 409.408 126.541 409.624C126.829 409.841 127.268 409.902 127.537 409.663C127.922 409.32 127.734 408.64 128.049 408.231C127.314 408.264 126.586 408.442 125.919 408.754ZM126.205 405.046C126.602 404.924 126.796 404.38 126.565 404.036C125.555 404.299 124.855 405.422 125.063 406.445C125.633 406.21 126.066 405.669 126.17 405.061M125.712 410.466C125.604 410.393 125.475 410.329 125.35 410.361C124.942 410.462 125.269 411.128 125.074 411.5C124.891 411.851 125.263 412.314 125.658 412.28C126.053 412.247 126.341 411.831 126.323 411.435C126.304 411.04 126.04 410.688 125.712 410.466M122.795 411.336C122.67 411.788 122.053 412.036 122.071 412.504C122.087 412.913 122.651 413.12 123.008 412.919C123.365 412.718 123.516 412.276 123.534 411.867C123.543 411.643 123.512 411.395 123.348 411.242C123.183 411.089 122.854 411.12 122.795 411.336M128.187 406.134C128.222 405.951 128.257 405.767 128.292 405.584C127.825 405.501 127.412 405.873 127.082 406.215C126.981 406.321 126.874 406.436 126.853 406.582C126.804 406.919 127.277 407.13 127.584 406.98C127.89 406.831 128.045 406.49 128.176 406.176L128.187 406.134Z" fill="white"/>
<path fill-rule="evenodd" clip-rule="evenodd" d="M230.138 248.167C228.312 247.904 226.486 247.642 224.66 247.379C224.065 247.293 223.272 246.787 223.636 246.309C224.748 246.902 226.137 246.606 227.255 246.027C228.374 245.447 229.345 244.61 230.476 244.056C231.547 243.531 232.727 243.278 233.884 242.986C240.265 241.378 246.263 238.494 252.618 236.786C252.99 236.686 253.442 236.608 253.718 236.878C254.026 237.179 253.898 237.7 253.701 238.083C252.689 240.053 250.312 241.219 248.135 240.812C247.086 240.616 246.344 241.746 245.653 242.559C244.38 244.059 242.455 244.808 240.614 245.5C238.665 246.232 236.716 246.964 234.767 247.696C234.087 247.951 233.401 248.208 232.681 248.301C231.836 248.41 230.981 248.288 230.138 248.167ZM251.5 239.02C251.686 238.72 251.124 238.542 250.782 238.63C247.418 239.491 244.026 240.402 240.975 242.061C239.392 242.921 237.697 243.573 235.946 243.996C233.599 244.563 230.987 244.799 229.241 246.467C230.134 247.425 231.669 247.466 232.911 247.05C234.153 246.633 235.238 245.849 236.443 245.335C237.955 244.691 239.615 244.488 241.191 244.021C242.767 243.554 244.358 242.731 245.135 241.281C245.685 240.255 246.931 239.826 248.085 239.669C249.24 239.513 250.452 239.529 251.5 239.02Z" fill="white"/>
<path fill-rule="evenodd" clip-rule="evenodd" d="M328.524 204.174C328.922 202.919 329.32 201.665 329.717 200.411C329.831 200.051 329.959 199.67 330.252 199.432C330.683 199.083 331.308 199.162 331.853 199.267C333.731 199.629 335.59 200.086 337.422 200.636C337.868 200.77 337.847 201.403 337.733 201.855C337.356 203.34 336.978 204.826 336.601 206.312C336.506 206.688 336.399 207.084 336.12 207.354C335.688 207.774 335.006 207.749 334.406 207.696C333.135 207.585 331.865 207.474 330.594 207.363C329.832 207.297 328.971 207.177 328.526 206.555C328.045 205.885 328.275 204.96 328.524 204.174ZM332.895 201.379C332.464 201.271 331.979 201.17 331.599 201.4C331.304 201.58 331.15 201.917 331.013 202.235C330.769 202.801 330.525 203.368 330.28 203.934C330.184 204.157 330.086 204.391 330.111 204.632C330.173 205.247 330.92 205.496 331.528 205.603C332.421 205.762 333.313 205.92 334.205 206.078C334.479 206.127 334.792 206.165 335.007 205.988C335.158 205.863 335.218 205.661 335.265 205.471C335.447 204.743 335.561 203.999 335.607 203.251C335.639 202.721 335.532 202.043 335.017 201.914C334.31 201.736 333.602 201.557 332.895 201.379L332.895 201.379Z" fill="#FFB61D"/>
<path fill-rule="evenodd" clip-rule="evenodd" d="M242.822 195.592C250.575 199.822 254.828 208.31 258.614 216.289C267.145 215.229 275.949 216.458 283.863 219.815C286.323 220.858 288.932 222.376 289.659 224.947C290.54 228.068 288.261 231.148 285.949 233.421C280.158 239.111 273.162 243.571 265.559 246.417C262.688 247.492 259.376 248.663 258.263 251.519C253.357 264.117 240.969 273.28 227.555 274.965C214.14 276.65 200.181 271.09 191.066 261.105C189.326 259.199 186.45 259.009 183.875 258.819C175.063 258.169 166.367 255.976 158.301 252.37C154.93 250.863 151.317 248.669 150.553 245.057C149.67 240.883 153.031 237.045 156.466 234.516C164.099 228.895 173.512 225.731 182.99 225.601C183.717 216.924 187.589 208.545 193.726 202.368C199.863 196.192 208.217 192.265 216.889 191.481C221.196 191.092 225.538 191.453 229.826 192.012C234.308 192.596 238.854 193.428 242.822 195.592ZM273.692 229.317C273.742 232.411 271.198 234.888 268.68 236.686C261.031 242.149 251.948 245.16 243.018 248.096C236.791 250.143 230.534 252.197 224.066 253.259C220.139 253.904 216.161 254.179 212.187 254.379C197.979 255.094 182.59 254.5 171.313 245.828C169.111 244.135 168.907 240.664 170.317 238.269C171.727 235.875 174.346 234.43 177.008 233.631C178.389 233.217 179.862 232.921 180.997 232.031C182.133 231.141 182.776 229.401 181.933 228.231C181.045 226.999 179.203 227.117 177.714 227.412C169.288 229.08 161.007 232.379 154.621 238.123C153.269 239.339 151.941 240.791 151.708 242.595C151.286 245.86 154.498 248.352 157.423 249.864C169.735 256.228 183.821 258.612 197.681 258.475C211.54 258.338 225.262 255.777 238.777 252.705C255.142 248.986 272.006 244.146 284.406 232.836C285.646 231.705 286.86 230.478 287.54 228.943C288.22 227.409 288.271 225.496 287.272 224.147C286.597 223.236 285.546 222.692 284.518 222.216C276.606 218.551 267.694 217.072 259.022 217.985C259.508 219.375 259.993 220.765 260.479 222.155C263.278 222.113 266.162 222.087 268.764 223.119C271.366 224.151 273.646 226.518 273.692 229.317ZM256.818 217.936C256.949 217.35 256.751 216.746 256.544 216.182C254.317 210.124 250.704 204.58 246.062 200.095C244.351 201.968 242.641 203.84 240.93 205.713C240.117 206.603 239.292 207.503 238.291 208.175C237.074 208.992 235.653 209.435 234.325 210.053C231.355 211.435 228.881 213.671 226.456 215.874C225.519 216.725 224.19 216.972 222.929 217.085C214.066 217.88 205.205 213.811 196.408 215.148C195.471 215.29 194.525 215.495 193.582 215.389C191.666 215.174 190.031 213.714 188.105 213.635C191.844 217.028 197.156 218.045 202.2 218.286C207.244 218.528 212.373 218.143 217.284 219.319C219.8 219.921 222.441 219.085 224.761 217.941C227.081 216.796 229.261 215.328 231.724 214.536C233.598 213.934 235.665 213.707 237.239 212.523C238.701 211.424 239.497 209.676 240.624 208.235C242.273 206.126 244.616 204.695 246.907 203.309C247.369 203.029 248.025 202.771 248.39 203.17C248.827 203.649 248.271 204.378 247.738 204.747C245.154 206.538 241.852 207.882 240.773 210.835C239.939 213.118 237.645 214.539 235.355 215.354C233.065 216.169 230.613 216.566 228.459 217.692C226.928 218.492 225.592 219.638 224.024 220.36C219.645 222.376 214.57 220.733 209.771 220.265C206.085 219.905 202.36 220.267 198.667 219.976C194.974 219.685 191.14 218.626 188.57 215.959C187.904 215.269 186.866 216.292 186.477 217.168C185.523 219.316 184.561 221.493 184.171 223.81C183.781 226.128 184.019 228.64 185.32 230.597C187.128 233.319 190.984 234.454 193.979 233.146C196.514 232.038 199.336 236.289 201.695 234.844C203.211 233.915 205.091 235.049 206.64 235.923C208.189 236.797 210.625 237.159 211.334 235.528C211.795 234.467 213.214 234.35 214.366 234.241C215.518 234.132 216.953 233.492 216.819 232.342C214.884 233.216 212.323 231.443 212.46 229.324C212.563 227.727 213.853 226.479 215.156 225.55C216.684 224.462 218.432 223.553 220.307 223.499C222.182 223.445 224.182 224.441 224.828 226.202C225.578 228.246 227.207 229.951 229.215 230.792C229.668 229.739 230.121 228.685 230.574 227.631C231.182 226.218 231.819 224.761 232.94 223.707C234.06 222.652 235.804 222.098 237.174 222.799C238.546 223.501 239.095 225.143 239.517 226.625C241.099 224.407 243.854 223.08 246.574 223.225C250.156 223.416 253.791 221.859 256.123 219.134C256.427 218.78 256.717 218.392 256.818 217.936ZM223.31 193.308C222.751 193.35 222.093 193.472 221.86 193.981C221.03 195.799 219.099 196.844 217.203 197.477C215.308 198.11 213.29 198.476 211.588 199.523C210.308 200.311 209.275 201.446 208.028 202.287C205.068 204.285 201.273 204.423 197.701 204.494C197.243 204.503 196.756 204.504 196.364 204.267C195.972 204.029 195.747 203.457 196.031 203.098C200.414 204.125 205.257 202.942 208.671 200.008C209.608 199.203 210.452 198.268 211.523 197.65C213.049 196.77 214.872 196.621 216.565 196.135C218.258 195.649 220.016 194.602 220.404 192.884C207.642 192.134 194.789 199.787 189.368 211.364C189.284 211.543 189.217 211.793 189.378 211.909C191.981 213.771 195.491 213.367 198.689 213.285C205.936 213.1 213.069 214.986 220.297 215.547C222.502 215.718 225.026 215.641 226.494 213.987C228.595 211.621 231.229 209.732 234.144 208.501C235.425 207.959 236.776 207.535 237.916 206.737C240.261 205.096 241.426 202.081 243.902 200.645C244.622 200.227 244.695 199.145 244.264 198.432C243.833 197.719 243.059 197.297 242.31 196.933C236.443 194.083 229.814 192.818 223.31 193.308ZM218.453 266.847C221.429 266.701 223.626 263.895 226.525 263.207C227.931 262.873 229.489 263.042 230.739 262.316C231.838 261.678 232.499 260.45 233.604 259.822C234.653 259.225 235.929 259.26 237.136 259.209C241.929 259.008 246.637 257.144 250.27 254.01C251.225 253.186 252.618 253.203 253.83 252.852C255.042 252.501 256.276 251.261 255.714 250.131C248.948 252.345 241.956 253.783 234.982 255.217C220.545 258.185 205.87 261.168 191.181 259.956C192.995 261.427 194.809 262.898 196.624 264.37C198.884 266.202 201.154 268.042 203.656 269.527C213.558 275.407 226.244 275.076 237.019 271.013C241.78 269.217 246.412 266.635 249.532 262.616C246.714 264.195 243.164 263.143 240.006 263.82C236.746 264.518 233.872 267.065 230.55 266.78C226.513 266.433 222.43 270.232 218.783 268.466C218.101 268.136 217.697 266.884 218.453 266.847M193.704 242.51C194.638 243.84 196.283 244.637 197.906 244.545C198.679 244.501 199.462 244.271 200.217 244.446C201.111 244.652 201.83 245.47 201.919 246.384C202.07 247.921 200.645 249.137 199.261 249.822C198.5 250.199 197.69 250.512 196.842 250.565C195.717 250.634 194.623 250.243 193.525 249.987C191.156 249.434 188.644 249.509 186.312 250.201C187.451 251.568 189.395 251.883 191.165 252.06C198.869 252.831 206.636 252.733 214.368 252.326C216.893 252.193 219.418 252.027 221.926 251.714C231.121 250.565 239.942 247.458 248.679 244.372C251.838 243.256 254.996 242.14 258.154 241.025C258.591 240.871 259.051 240.7 259.335 240.334C259.642 239.941 259.678 239.406 259.699 238.908C259.847 235.339 259.871 231.765 259.768 228.195C259.764 228.023 259.751 227.834 259.632 227.71C259.472 227.545 259.203 227.575 258.976 227.618C255.25 228.324 251.523 229.03 247.797 229.735C247.127 229.862 246.433 229.999 245.882 230.399C245.223 230.876 244.866 231.652 244.382 232.305C241.364 236.367 234.413 234.86 230.802 238.406C229.612 239.574 228.94 241.162 227.93 242.489C226.921 243.817 225.297 244.944 223.68 244.537C222.744 244.302 222.009 243.601 221.198 243.076C220.388 242.551 219.303 242.2 218.481 242.707C218.078 242.955 217.811 243.369 217.476 243.704C216.153 245.021 213.976 244.922 212.194 244.364C210.412 243.807 208.7 242.879 206.834 242.824C204.709 242.761 202.641 243.847 200.531 243.59C198.392 243.33 196.574 241.726 194.425 241.571C194.053 241.544 193.565 241.658 193.526 242.03C193.508 242.203 193.604 242.367 193.704 242.51ZM238.245 228.176C237.346 227.456 237.834 225.885 237.106 224.992C236.209 223.893 234.394 224.703 233.474 225.783C232.59 226.82 231.947 228.061 231.607 229.38C231.216 230.901 230.704 232.991 229.136 232.911C228.724 232.89 228.342 232.696 227.986 232.488C225.725 231.167 223.896 229.121 222.836 226.727C222.31 225.538 220.794 225.056 219.516 225.299C218.239 225.542 217.145 226.335 216.098 227.107C215.433 227.596 214.726 228.147 214.514 228.944C214.302 229.742 214.928 230.776 215.737 230.616C216.914 230.383 218.202 231.188 218.508 232.348C218.156 234.121 216.329 235.134 214.696 235.909C213.431 236.509 212.166 237.11 210.901 237.71C209.978 238.148 208.992 238.597 207.978 238.474C205.995 238.233 204.432 235.88 202.509 236.419C201.992 236.563 201.551 236.91 201.038 237.064C198.468 237.838 196.14 233.647 193.693 234.749C189.813 236.495 184.661 234.202 183.361 230.151C182.954 236.495 183.614 242.908 185.305 249.037C187.849 247.97 190.718 247.694 193.419 248.254C194.773 248.535 196.14 249.022 197.501 248.783C198.862 248.544 200.158 247.184 199.697 245.881C198.284 246.632 196.53 246.375 195.056 245.751C194.045 245.322 193.07 244.701 192.493 243.767C191.915 242.833 191.826 241.539 192.5 240.672C193.396 239.518 195.18 239.556 196.541 240.088C197.902 240.62 199.124 241.53 200.557 241.813C202.006 242.098 203.49 241.709 204.956 241.524C207.175 241.243 209.452 241.436 211.592 242.085C213.082 242.537 214.706 243.205 216.124 242.563C217.423 241.975 218.237 240.385 219.657 240.272C221.77 240.104 223.239 243.361 225.261 242.728C226.151 242.45 226.628 241.517 227.094 240.71C229.27 236.946 233.281 234.302 237.598 233.786C238.74 233.65 239.944 233.642 240.954 233.091C242.583 232.203 243.238 230.182 244.664 228.994C246.309 227.622 248.641 227.588 250.774 227.395C253.146 227.181 255.492 226.689 257.751 225.932C258.147 225.799 258.564 225.641 258.813 225.305C259.119 224.892 259.088 224.325 259.007 223.817C258.786 222.426 258.291 221.078 257.56 219.874C254.632 222.618 251.122 225.563 247.144 225.036C245.206 224.779 243.167 225.425 241.731 226.751C240.715 227.689 239.325 229.039 238.245 228.176M176.466 246.75C178.622 247.729 180.777 248.708 182.933 249.687C183.196 249.807 183.569 249.898 183.723 249.653C183.814 249.509 183.77 249.322 183.724 249.158C182.361 244.342 181.65 239.342 181.616 234.337C181.613 233.985 181.104 233.939 180.76 234.014C179.739 234.236 178.715 234.459 177.724 234.788C175.785 235.431 173.982 236.481 172.465 237.85C171.406 238.806 170.424 240.12 170.654 241.529C170.761 242.176 171.116 242.756 171.518 243.275C172.115 244.043 172.834 244.717 173.638 245.265C174.519 245.865 175.495 246.309 176.466 246.75ZM272.168 230.694C272.914 229.209 272.195 227.316 270.93 226.24C269.664 225.163 267.986 224.726 266.358 224.394C264.57 224.029 262.764 223.754 260.949 223.567C261.523 228.577 261.734 233.628 261.579 238.667C261.569 238.989 261.925 239.223 262.246 239.206C262.567 239.189 262.85 239 263.112 238.814C265.976 236.795 268.658 234.519 271.117 232.023C271.516 231.619 271.914 231.201 272.168 230.694ZM224.946 266.124C226.761 265.108 229.008 265.53 231.067 265.238C234.914 264.693 238.196 261.615 242.08 261.689C243.276 261.712 244.46 262.041 245.653 261.952C246.944 261.857 248.147 261.28 249.286 260.664C251.592 259.416 254.004 257.632 254.331 255.031C254.35 254.883 254.361 254.731 254.316 254.589C254.089 253.873 253.009 254.215 252.411 254.669C247.658 258.281 241.934 261.037 235.968 260.815C234.405 260.757 233.474 262.487 232.197 263.39C230.88 264.32 229.159 264.354 227.575 264.66C225.369 265.086 223.282 266.114 221.599 267.602C222.824 267.878 223.85 266.738 224.946 266.124L224.946 266.124Z" fill="white"/>
<path fill-rule="evenodd" clip-rule="evenodd" d="M144.654 307.118C143.644 307.034 142.81 306.341 141.921 305.856C138.929 304.224 135.088 304.991 132.251 306.878C129.413 308.764 127.364 311.596 125.379 314.365C122.215 318.779 119.05 323.193 115.886 327.607C112.937 331.721 109.836 336.444 110.701 341.431C111.524 346.174 115.665 349.52 119.514 352.41C128.786 359.372 138.059 366.334 147.331 373.296C148.511 374.182 150.186 375.075 151.335 374.148C160.056 367.103 174.075 367.855 181.992 375.793C186.966 370.58 191.134 364.599 194.302 358.128C195.173 356.35 195.985 354.457 195.924 352.479C195.814 348.864 192.913 346.034 190.218 343.623C185.266 339.193 180.314 334.764 175.362 330.334C171.609 332.681 167.527 334.757 163.116 335.126C155.174 335.792 147.198 330.084 145.181 322.374C143.164 314.665 147.267 305.832 154.42 302.32C161.574 298.809 171.011 300.922 176.053 307.093C181.095 313.265 181.31 322.866 176.622 329.31C180.584 332.76 184.545 336.209 188.506 339.658C191.331 342.118 194.199 344.628 196.184 347.805C199.312 352.813 199.933 358.945 200.304 364.838C201.419 382.522 200.629 401.53 190.391 415.991C186.637 421.294 181.777 425.716 176.725 429.801C174.088 431.933 171.351 434.007 168.238 435.352C164.7 436.881 160.814 437.409 156.969 437.693C126.994 439.909 96.2763 427.394 76.3839 404.861C74.2882 402.487 72.2917 399.996 69.8407 397.991C67.6107 396.167 65.0452 394.781 62.8551 392.909C58.1774 388.911 55.4861 382.694 55.7729 376.547C55.9258 373.271 54.3245 370.204 53.4807 367.034C52.6733 364.001 52.5598 360.786 53.1513 357.703C53.7997 354.324 55.2695 351.158 56.9106 348.134C65.3356 332.607 78.7598 319.844 94.6917 312.214C110.623 304.583 128.982 302.123 146.361 305.291C146.808 306.2 145.663 307.202 144.654 307.118ZM165.098 379.354C163.294 378.827 161.467 378.223 159.977 377.078C158.486 375.933 157.371 374.139 157.508 372.264C156.644 372.061 155.67 372.524 155.282 373.323C154.894 374.121 155.133 375.173 155.827 375.726C157.114 376.752 157.296 378.893 156.201 380.121C155.938 378.014 154.96 376.003 153.465 374.495C153.358 374.388 153.233 374.276 153.081 374.271C152.759 374.261 152.64 374.692 152.658 375.014C152.761 376.933 153.981 378.652 155.512 379.814C157.042 380.977 158.868 381.67 160.667 382.347C162.473 380.031 166.315 379.703 168.489 381.68C170.372 383.392 173.37 383.422 175.645 382.281C177.92 381.141 179.572 379.044 180.84 376.837C177.144 378.666 173.214 380.543 169.105 380.205C167.741 380.093 166.411 379.737 165.098 379.354ZM68.6402 386.089C64.2105 383.259 60.4005 379.548 56.9728 375.562C56.8805 381.424 59.2415 387.285 63.3705 391.446C67.4995 395.607 73.3427 398.013 79.2045 397.966C81.0468 397.951 82.4415 399.528 83.7386 400.836C86.8866 404.012 90.8489 406.231 94.7547 408.408C102.302 412.614 109.93 416.855 118.228 419.263C123.344 420.748 129.398 421.334 133.513 417.951C137.958 414.298 138.198 407.261 135.626 402.114C133.055 396.967 128.357 393.269 123.807 389.747C118.828 385.893 113.849 382.039 108.87 378.185C108.276 377.725 107.616 377.108 107.744 376.368C108.533 371.797 106.416 367.109 103.251 363.718C100.087 360.326 95.9705 358.004 91.9123 355.757C91.436 356.378 92.044 357.224 92.5711 357.802C96.5149 362.128 97.3359 368.769 95.3689 374.283C93.4018 379.797 88.9705 384.201 83.834 387.009C81.8873 388.073 79.7771 388.946 77.5612 389.059C74.3794 389.221 71.3247 387.805 68.6402 386.089ZM160.54 411.624C157.515 411.564 154.568 410.683 151.718 409.668C147.136 408.037 142.684 406.04 138.418 403.703C139.269 406.98 139.202 410.49 138.228 413.732C137.112 417.446 133.528 420.031 129.747 420.895C125.966 421.758 122.006 421.164 118.235 420.258C104.736 417.017 92.3889 409.848 81.8269 400.839C80.7482 399.919 79.5734 398.931 78.158 398.848C76.7425 398.766 75.2102 400.161 75.7473 401.473C75.8623 401.754 76.0552 401.995 76.2456 402.231C79.5333 406.316 82.8493 410.429 86.8724 413.792C88.8086 415.41 90.893 416.84 92.9863 418.25C100.666 423.419 108.603 428.379 117.351 431.408C128.924 435.417 141.38 435.872 153.62 436.29C158.191 436.445 163.442 436.315 166.377 432.807C167.571 431.381 168.195 429.569 168.667 427.77C170.29 421.586 170.38 415.007 168.925 408.781C166.709 410.841 163.565 411.684 160.54 411.624ZM84.2661 339.078C78.9585 338.793 73.5319 339.046 68.5202 340.816C63.5086 342.587 58.9217 346.028 56.6458 350.831C55.8625 352.485 55.3647 354.262 55.0326 356.061C53.9056 362.165 54.7647 368.767 58.1581 373.965C59.9513 376.712 62.374 378.984 64.8458 381.14C67.2278 383.218 69.7311 385.248 72.6679 386.417C75.6047 387.587 79.0742 387.793 81.8435 386.269C86.1889 383.878 90.1092 380.492 92.4145 376.101C94.7198 371.709 95.2347 366.238 93.0773 361.772C91.5011 358.509 88.6876 356.027 86.6725 353.015C85.694 351.553 84.9049 349.963 84.331 348.3C83.8102 346.79 83.4652 345.167 83.7614 343.597C84.0577 342.028 85.108 340.526 86.6361 340.061C86.2024 339.278 85.16 339.126 84.2661 339.078ZM187.264 371.538C183.751 375.909 180.237 380.28 176.723 384.651C174.308 387.655 171.852 390.699 168.718 392.943C165.584 395.188 161.631 396.571 157.85 395.824C161.067 397.96 164.919 399.127 168.782 399.135C169.763 399.137 170.198 400.351 170.361 401.319C171.289 406.807 172.22 412.334 172.118 417.9C172.016 423.465 170.818 429.134 167.788 433.803C169.076 433.546 170.324 433.087 171.473 432.449C173.106 431.541 174.516 430.287 175.911 429.043C182.029 423.589 188.269 417.983 192.185 410.783C195.64 404.43 197.079 397.207 198.471 390.11C199.614 384.281 200.73 378.095 198.653 372.53C196.619 367.081 199.86 360.489 197.127 355.355C195.325 361.454 191.249 366.581 187.264 371.538ZM101.367 359.384C104.891 362.062 107.849 365.728 108.812 370.049C109.362 372.519 109.289 375.231 110.673 377.349C111.321 378.34 112.241 379.117 113.165 379.857C121.086 386.204 130.453 391.168 136.233 399.511C137.599 401.482 139.803 402.678 141.964 403.716C146.104 405.702 150.396 407.37 154.792 408.699C158.366 409.78 162.277 410.625 165.772 409.309C166.668 408.972 167.546 408.467 168.064 407.662C169 406.207 168.504 404.298 167.979 402.65C167.715 401.823 167.306 400.862 166.452 400.708C160.234 399.593 154.32 396.826 149.479 392.768C148.177 391.677 146.933 390.481 145.421 389.709C144.52 389.248 143.546 388.95 142.622 388.539C140.296 387.506 138.349 385.798 136.414 384.146C129.085 377.886 121.381 372.066 113.356 366.727C110.983 365.149 109.094 362.957 107.238 360.794C106.616 360.07 105.995 359.345 105.373 358.621C102.816 355.642 100.168 352.483 99.3809 348.636C98.685 345.236 95.5304 342.904 92.3557 341.502C90.5906 340.723 88.3884 340.171 86.8494 341.335C85.239 342.554 85.2525 344.966 85.6762 346.94C86.2115 349.434 87.3689 352.075 89.7021 353.105C93.7513 354.893 97.8423 356.706 101.367 359.384ZM84.8878 337.714C89.3119 338.168 93.7781 339.462 97.2263 342.271C97.9862 342.89 99.37 343.442 99.7 342.519C101.454 337.615 104.466 333.276 107.444 329.002C108.717 327.174 109.991 325.346 111.264 323.519C115.462 317.493 119.726 311.395 125.33 306.648C119.631 306.036 113.86 306.943 108.331 308.455C94.0938 312.349 81.0046 320.35 71.0463 331.245C70.0962 332.284 69.1726 333.351 68.3479 334.493C66.5506 336.981 65.213 339.834 63.011 341.972C69.673 338.446 77.3896 336.944 84.8878 337.714ZM119.887 365.7C122.003 365.328 122.917 361.58 124.944 362.293C123.568 364.411 122.009 366.41 120.288 368.259C119.936 368.638 120.336 369.23 120.722 369.574C123.667 372.207 126.907 374.509 130.362 376.425C131.304 374.452 133.764 373.57 135.931 373.86C138.098 374.149 140.02 375.368 141.778 376.667C143.291 377.785 144.743 378.984 146.127 380.259C148.3 382.262 150.458 385.225 149.253 387.924C148.814 388.909 149.936 389.841 150.892 390.34C153.136 391.514 155.418 392.694 157.895 393.225C164.468 394.635 171.774 390.652 174.152 384.364C169.885 385.983 165.025 385.98 160.76 384.354C157.817 383.233 155.21 381.396 152.646 379.567C141.472 371.59 130.469 363.372 119.648 354.921C117.028 352.875 114.392 350.788 112.343 348.171C110.293 345.555 108.855 342.318 109.003 338.997C109.189 334.844 111.749 331.226 114.21 327.876C119.718 320.378 125.226 312.881 130.734 305.384C125.754 306.434 122.256 310.777 119.186 314.836C113.315 322.602 107.428 330.393 102.543 338.815C101.67 340.32 100.819 341.873 100.451 343.574C99.3365 348.724 102.841 353.712 106.659 357.344C106.86 357.536 107.098 357.739 107.374 357.715C107.604 357.696 107.788 357.524 107.952 357.361C109.312 356.012 110.673 354.662 112.033 353.313C113.368 351.989 115.633 352.783 117.204 353.816C119.431 355.279 121.429 357.091 123.102 359.165C123.46 359.608 123.822 360.135 123.728 360.697C123.634 361.258 122.792 361.626 122.483 361.148C121.572 359.735 120.502 358.425 119.299 357.252C117.908 355.895 116.221 354.674 114.284 354.526C112.348 354.377 110.205 355.688 110.053 357.625C114.396 358.457 118.226 361.602 119.887 365.7ZM174.864 323.525C173.594 321.332 173.832 318.363 175.436 316.401C176.399 315.222 176.458 313.493 175.931 312.064C175.404 310.636 174.377 309.452 173.308 308.368C169.894 304.906 165.423 301.972 160.567 302.21C155.302 302.468 150.921 306.367 147.785 310.604C146.418 312.451 145.143 314.587 145.317 316.878C145.423 318.287 146.071 319.591 146.706 320.853C148.006 323.434 149.321 326.038 151.149 328.276C152.977 330.515 155.388 332.387 158.201 333.047C160.161 333.507 162.5 333.228 163.738 331.64C164.707 330.396 166.627 330.783 168.188 330.558C170.32 330.252 171.999 328.65 173.524 327.13C174.504 326.151 175.559 324.723 174.864 323.525ZM144.2 381.12C143.264 380.366 142.329 379.611 141.393 378.857C139.412 377.26 137.292 375.601 134.768 375.27C133.761 375.138 132.525 375.366 132.133 376.303C131.736 377.255 132.454 378.282 133.152 379.041C135.916 382.043 139.106 384.652 142.598 386.763C143.772 387.472 145.013 388.138 146.371 388.33C146.708 388.378 147.066 388.393 147.375 388.251C148.035 387.949 148.204 387.078 148.107 386.359C147.808 384.144 145.94 382.523 144.2 381.12ZM176.224 374.09C173.245 375.596 169.62 375.764 166.515 374.538C165.352 374.079 164.244 373.421 163.425 372.476C162.942 371.917 162.548 371.252 161.914 370.872C161.281 370.492 160.285 370.567 159.999 371.248C161.114 372.924 162.33 374.686 164.179 375.483C164.816 375.758 165.499 375.903 166.178 376.046C168.306 376.495 170.452 376.937 172.627 376.947C174.802 376.958 177.032 376.506 178.839 375.297C178.169 374.5 177.152 373.62 176.224 374.09ZM158.478 371.584C158.237 372.499 158.718 373.445 159.279 374.206C161.178 376.784 164.17 378.465 167.323 379.021C170.475 379.578 173.768 379.058 176.72 377.819C177.444 377.515 178.189 377.134 178.597 376.464C176.677 377.413 174.532 377.904 172.389 377.883C171.576 377.875 170.766 377.794 169.957 377.71C167.821 377.488 165.649 377.229 163.681 376.368C161.483 375.406 159.621 373.694 158.478 371.584ZM117.325 364.851C115.501 362.317 112.833 360.402 109.849 359.486C109.524 360.877 110.649 362.149 111.682 363.136C113.16 364.549 114.759 366.025 116.77 366.395C116.982 366.434 117.214 366.458 117.403 366.354C117.905 366.081 117.658 365.314 117.325 364.851ZM167.591 373.9C170.064 374.674 172.806 374.557 175.204 373.574C175.35 373.514 175.514 373.428 175.543 373.273C175.565 373.151 175.493 373.033 175.414 372.939C174.885 372.318 173.941 372.233 173.147 372.42C172.353 372.607 171.624 373.012 170.833 373.213C168.917 373.699 166.734 372.813 165.7 371.128C165.248 370.392 164.23 370.067 163.435 370.404C164.039 372.184 165.797 373.338 167.591 373.9ZM164.707 381.344C163.717 381.515 162.856 382.129 161.883 382.379C161.511 382.475 161.497 383.074 161.812 383.294C162.126 383.514 162.569 383.423 162.896 383.222C163.222 383.021 163.481 382.725 163.798 382.509C164.933 381.736 166.733 382.329 167.185 383.625C167.359 384.123 168.135 384.257 168.467 383.847C168.098 382.228 166.343 381.06 164.707 381.344ZM170.017 370.887C168.904 370.678 167.782 370.469 166.649 370.483C167.649 372.407 170.518 373.025 172.222 371.682C172.27 371.398 171.909 371.241 171.626 371.188C171.09 371.087 170.554 370.987 170.017 370.887ZM165.131 383.772C165.483 383.918 165.921 383.415 165.651 383.147C164.97 382.969 164.218 383.087 163.625 383.465C163.996 383.847 164.597 383.985 165.098 383.805M151.765 375.95C151.599 375.742 151.231 375.751 151.074 375.966C151.187 376.354 151.518 376.669 151.91 376.763C152.203 376.571 152.121 376.032 151.785 375.935M154.261 394.143C154.481 394.471 154.882 394.67 155.277 394.648C155.226 394.206 154.638 393.932 154.267 394.177" fill="white"/>
<path fill-rule="evenodd" clip-rule="evenodd" d="M332.233 216.93C331.63 216.523 330.854 217.424 331.061 218.122C331.268 218.819 331.967 219.226 332.585 219.609C338.865 223.501 341.749 232.09 339.09 238.983C337.281 239.063 335.599 237.682 333.807 237.943C332.981 238.062 332.249 238.521 331.545 238.968C329.451 240.299 327.358 241.629 325.264 242.959C324.5 243.445 323.639 244.115 323.717 245.017C323.888 246.982 322.15 248.984 320.183 248.84C318.215 248.695 316.804 246.129 317.924 244.505C318.188 244.122 318.563 243.796 318.693 243.349C318.81 242.948 318.708 242.519 318.606 242.114C317.913 239.367 317.221 236.619 316.528 233.872C316.398 233.355 316.261 232.824 315.952 232.388C315.322 231.501 314.141 231.219 313.057 231.12C311.974 231.021 310.829 231.024 309.887 230.478C308.946 229.933 308.367 228.576 309.055 227.733C312.663 223.311 317.171 219.009 322.836 218.309C323.805 218.19 324.836 218.165 325.661 217.641C326.486 217.118 326.934 215.852 326.249 215.155C325.286 214.175 323 215.03 322.618 213.709C322.536 213.425 322.594 213.12 322.652 212.83C323.249 209.855 323.845 206.88 324.442 203.905C323.951 202.776 322.122 203.212 321.45 204.243C320.779 205.274 320.693 206.606 320.01 207.63C318.63 209.7 315.609 209.63 313.151 209.244C304.352 207.864 295.721 205.414 287.509 201.965C287.133 201.807 286.731 201.624 286.527 201.27C286.266 200.815 286.419 200.244 286.579 199.744C287.969 195.388 289.36 191.032 290.75 186.676C291.086 185.624 291.845 184.323 292.908 184.623C302.75 187.398 312.593 190.172 322.435 192.947C322.904 193.079 323.395 193.224 323.743 193.565C324.459 194.267 324.276 195.461 323.903 196.391C323.53 197.321 323.008 198.286 323.212 199.267C323.416 200.248 324.867 200.919 325.423 200.085C327.453 194.602 329.608 188.922 333.816 184.862C334.612 184.094 335.547 183.362 336.649 183.262C339.1 183.037 340.625 185.842 341.243 188.224C342.371 192.572 342.756 197.111 342.379 201.587C342.303 202.479 342.255 203.522 342.934 204.104C343.894 204.928 345.382 204.106 346.184 203.128C346.987 202.151 347.747 200.903 349.002 200.746C349.557 200.677 350.111 200.846 350.645 201.013C359.665 203.838 368.684 206.662 377.704 209.487C376.118 214.422 374.419 219.322 372.609 224.18C372.43 224.66 372.219 225.177 371.772 225.428C371.243 225.724 370.585 225.54 370.009 225.35C361.228 222.446 352.446 219.542 343.665 216.639C342.541 216.267 342.324 214.726 342.688 213.6C343.053 212.474 343.789 211.449 343.859 210.268C343.93 209.087 342.791 207.74 341.722 208.247C341.114 208.535 340.866 209.26 340.731 209.92C340.353 211.761 340.353 213.748 339.381 215.357C337.971 217.693 334.494 218.458 332.233 216.93ZM338.579 236.485C339.215 231.255 337.908 225.446 333.835 222.105C330.425 219.309 325.531 218.707 321.308 219.978C317.085 221.249 313.511 224.206 310.869 227.737C310.631 228.054 310.393 228.484 310.603 228.821C310.732 229.028 310.986 229.113 311.22 229.183C320.036 231.811 328.852 234.44 337.668 237.068C337.885 237.133 338.137 237.193 338.325 237.067C338.507 236.946 338.552 236.702 338.579 236.485ZM339.054 188.837C337.109 189.907 334.335 188.942 333.473 186.896C328.564 194.799 325.434 203.8 324.381 213.044C328.093 214.344 331.922 215.305 335.807 215.913C336.208 215.976 336.642 216.029 336.999 215.837C337.386 215.628 337.577 215.187 337.735 214.776C340.762 206.889 341.587 198.17 340.093 189.856C339.992 189.294 339.554 188.561 339.054 188.837ZM309.722 200.904C309.897 200.315 310.054 199.619 309.677 199.133C309.399 198.775 308.918 198.657 308.475 198.562C306.497 198.139 304.519 197.716 302.541 197.293C301.979 197.172 301.395 197.485 301.031 197.93C300.667 198.375 300.479 198.935 300.299 199.481C300.159 199.903 300.16 200.557 300.604 200.587C303.001 200.75 305.377 201.228 307.65 202.005C308.065 202.147 308.525 202.297 308.927 202.123C309.387 201.924 309.579 201.385 309.722 200.904M318.774 205.249C319.302 205.031 319.53 204.42 319.7 203.874C319.846 203.408 319.98 202.859 319.691 202.465C319.495 202.198 319.158 202.084 318.842 201.985C316.678 201.306 314.514 200.627 312.349 199.949C312.199 199.901 312.035 199.855 311.889 199.914C311.744 199.973 311.658 200.122 311.587 200.262C311.294 200.843 311.06 201.454 310.89 202.082C310.821 202.337 310.764 202.617 310.869 202.859C310.991 203.142 311.294 203.295 311.576 203.419C313.541 204.283 315.612 204.907 317.727 205.273C318.076 205.333 318.447 205.384 318.774 205.249ZM320.004 242.283C320.024 242.371 320.045 242.462 320.097 242.537C320.246 242.749 320.589 242.727 320.788 242.561C320.987 242.395 321.078 242.136 321.16 241.89C321.889 239.704 322.619 237.519 323.349 235.333C323.463 234.992 323.57 234.591 323.367 234.294C323.209 234.061 322.913 233.975 322.641 233.904C321.467 233.599 320.293 233.294 319.118 232.988C318.935 232.941 318.74 232.893 318.558 232.948C318.062 233.099 318.073 233.799 318.188 234.305C318.793 236.964 319.398 239.623 320.004 242.283ZM326.366 235.217C326.202 235.172 326.031 235.126 325.865 235.163C325.628 235.216 325.461 235.424 325.319 235.622C323.794 237.75 322.854 240.292 322.626 242.899C323.052 242.861 323.424 242.607 323.775 242.36C326.157 240.685 328.539 239.011 330.921 237.336C331.182 237.152 331.462 236.776 331.222 236.566C329.603 236.117 327.984 235.667 326.366 235.217ZM290.07 195.307C290.016 195.581 289.969 195.888 290.121 196.121C290.225 196.279 290.4 196.371 290.568 196.456C292.44 197.407 294.312 198.358 296.184 199.309C296.588 199.515 297.006 199.724 297.459 199.751C297.911 199.779 298.41 199.575 298.588 199.158C298.834 198.578 299.081 197.997 299.328 197.417C299.51 196.989 299.533 196.284 299.068 196.27C296.376 196.188 293.707 195.417 291.386 194.05C291.077 193.869 290.659 194.029 290.437 194.309C290.214 194.59 290.139 194.956 290.07 195.307ZM308.415 205.281C308.536 204.675 308.147 204.06 307.628 203.726C307.109 203.391 306.483 203.277 305.875 203.17C304.215 202.877 302.554 202.584 300.894 202.291C300.431 202.209 299.953 202.128 299.495 202.23C299.036 202.332 298.595 202.665 298.515 203.128C298.367 203.989 299.407 204.522 300.247 204.761C301.876 205.225 303.505 205.689 305.134 206.152C305.749 206.328 306.387 206.505 307.021 206.418C307.656 206.332 308.29 205.909 308.415 205.281ZM301.601 191.231C302.294 190.747 302.182 189.611 301.598 189C301.014 188.388 300.144 188.165 299.322 187.969C297.632 187.566 295.942 187.162 294.252 186.759C293.7 186.627 293.022 186.532 292.65 186.961C292.323 187.339 292.442 187.954 292.774 188.328C293.106 188.701 293.593 188.891 294.06 189.068C295.888 189.761 297.717 190.454 299.545 191.147C300.214 191.401 301.015 191.641 301.601 191.231ZM344.679 215.018C344.761 215.198 344.96 215.288 345.143 215.364C347.005 216.134 348.868 216.903 350.731 217.673C351.287 217.903 351.974 217.767 352.401 217.343C352.827 216.919 352.967 216.232 352.741 215.675C352.415 214.871 351.506 214.501 350.688 214.213C349.218 213.697 347.747 213.18 346.277 212.663C345.819 212.502 345.301 212.79 345.04 213.199C344.778 213.608 344.712 214.107 344.653 214.589C344.635 214.733 344.619 214.886 344.679 215.018M354.364 212.854C354.508 212.49 354.655 212.098 354.569 211.717C354.423 211.071 353.707 210.757 353.082 210.541C351.609 210.032 350.132 209.533 348.652 209.044C348.046 208.844 347.376 208.647 346.787 208.894C346.269 209.111 345.922 209.683 345.969 210.243C346.015 210.803 346.451 211.309 346.998 211.438C349.099 211.934 351.123 212.758 352.973 213.87C353.537 214.209 354.121 213.466 354.364 212.854M288.587 200.704C288.958 201.061 289.474 201.213 289.969 201.352C291.968 201.916 293.966 202.48 295.964 203.044C296.119 203.088 296.277 203.132 296.439 203.132C296.827 203.131 297.196 202.839 297.287 202.462C297.377 202.084 297.181 201.657 296.835 201.48C294.687 200.38 292.538 199.28 290.39 198.18C289.728 197.841 288.832 198.059 288.4 198.664C287.967 199.27 288.052 200.187 288.587 200.704ZM365.2 217.404C365.159 217.694 365.125 218.017 365.295 218.256C365.44 218.459 365.695 218.547 365.933 218.622C367.605 219.152 369.279 219.675 370.955 220.192C371.233 220.278 371.523 220.365 371.81 220.317C372.507 220.202 372.83 219.404 373.026 218.725C373.113 218.426 373.189 218.071 372.991 217.83C372.874 217.688 372.69 217.626 372.515 217.57C370.562 216.943 368.61 216.317 366.657 215.69C366.248 215.559 365.794 215.816 365.56 216.176C365.326 216.537 365.26 216.978 365.2 217.404M292.729 192.702C294.654 194.09 297.065 194.971 299.406 194.579C299.982 194.482 300.675 194.133 300.61 193.552C300.545 192.966 299.799 192.786 299.217 192.693C296.902 192.324 294.834 191.081 292.831 189.864C292.204 189.483 291.385 190.259 291.458 190.989C291.531 191.719 292.134 192.273 292.729 192.702ZM358.45 213.227C357.892 213.027 357.311 212.823 356.722 212.887C356.133 212.951 355.537 213.369 355.476 213.958C355.38 214.896 356.519 215.404 357.427 215.656C359.183 216.143 360.902 216.765 362.563 217.515C363.207 217.806 363.748 216.954 363.948 216.276C364.052 215.922 364.136 215.483 363.865 215.232C363.767 215.14 363.637 215.093 363.511 215.047C361.824 214.441 360.137 213.834 358.45 213.227ZM348.582 203.76C348.843 204.225 349.37 204.462 349.862 204.669C351.914 205.532 353.979 206.399 356.149 206.899C356.869 206.342 356.68 205.13 356.028 204.495C355.376 203.86 354.442 203.635 353.569 203.38C352.401 203.039 351.261 202.602 350.165 202.073C349.704 201.851 349.105 201.962 348.754 202.336C348.404 202.709 348.331 203.314 348.582 203.76M361.835 220.84C362.318 220.845 362.778 220.475 362.877 220.002C362.984 219.49 362.689 218.961 362.275 218.64C361.862 218.319 361.347 218.164 360.845 218.016C359.393 217.587 357.941 217.158 356.489 216.729C355.948 216.569 355.377 216.408 354.826 216.533C354.275 216.658 353.77 217.178 353.874 217.734C353.982 218.319 354.641 218.6 355.208 218.782C357.211 219.424 359.215 220.066 361.218 220.708C361.419 220.773 361.624 220.838 361.835 220.84ZM366.681 207.749C366.471 207.563 366.19 207.486 365.919 207.414C363.92 206.887 361.921 206.359 359.922 205.831C359.76 205.789 359.589 205.746 359.43 205.797C359.273 205.846 359.157 205.978 359.05 206.103C358.792 206.407 358.523 206.731 358.453 207.124C358.384 207.517 358.601 207.991 358.995 208.052C360.487 208.284 361.953 208.686 363.354 209.248C364.169 209.576 365.042 209.965 365.893 209.746C366.743 209.528 367.338 208.332 366.681 207.749M312.64 197.256C312.612 197.862 313.197 198.302 313.738 198.576C315.359 199.397 317.159 199.781 318.937 200.156C319.393 200.253 319.868 200.349 320.322 200.238C320.775 200.127 321.198 199.744 321.191 199.278C321.183 198.636 320.46 198.283 319.852 198.078C318.319 197.561 316.786 197.044 315.253 196.528C314.753 196.359 314.23 196.188 313.707 196.26C313.184 196.332 312.665 196.728 312.64 197.256ZM373.617 212.547C374.273 212.746 375.146 212.87 375.5 212.284C375.809 211.773 375.521 210.957 376.014 210.621C374.392 210.088 372.769 209.555 371.146 209.022C370.493 208.808 369.799 208.591 369.128 208.743C368.457 208.896 367.855 209.571 368.043 210.233C368.216 210.844 368.912 211.115 369.52 211.3C370.886 211.716 372.252 212.131 373.617 212.547ZM312.641 192.309C310.847 191.531 308.99 190.901 307.093 190.425C306.595 190.299 306.093 190.185 305.592 190.07C305.181 189.977 304.746 189.884 304.347 190.017C303.868 190.176 303.528 190.68 303.559 191.185C303.59 191.689 303.99 192.147 304.485 192.246C306.419 192.634 308.353 193.022 310.287 193.41C310.794 193.512 311.327 193.613 311.823 193.462C312.318 193.31 312.749 192.815 312.641 192.309ZM322.368 195.19C322.418 195.034 322.466 194.858 322.389 194.714C322.308 194.562 322.121 194.507 321.954 194.466C319.779 193.934 317.603 193.401 315.428 192.869C314.996 192.764 314.476 192.681 314.164 192.998C313.862 193.305 313.95 193.847 314.237 194.169C314.523 194.49 314.947 194.647 315.352 194.792C316.343 195.145 317.334 195.498 318.325 195.851C319.488 196.266 320.696 196.687 321.927 196.578C322.074 196.115 322.221 195.653 322.368 195.19ZM359.02 209.669C358.492 209.539 357.842 209.445 357.483 209.853C357.159 210.221 357.281 210.828 357.614 211.187C357.948 211.546 358.431 211.718 358.894 211.878C360.226 212.337 361.558 212.796 362.89 213.255C363.584 213.494 364.466 213.691 364.958 213.146C365.394 212.665 365.204 211.849 364.731 211.403C364.259 210.958 363.598 210.788 362.967 210.634C361.652 210.312 360.336 209.99 359.02 209.669ZM364.06 221.238C364.081 222.002 364.929 222.429 365.654 222.67C366.787 223.046 367.935 223.377 369.094 223.662C369.553 223.775 370.045 223.879 370.489 223.718C370.971 223.543 371.314 223.041 371.303 222.528C371.291 222.015 370.926 221.529 370.436 221.375C369.291 221.017 368.145 220.658 367 220.3C366.421 220.118 365.815 219.935 365.218 220.039C364.621 220.143 364.043 220.632 364.06 221.238M302.12 194.752C302.116 195.364 302.859 195.656 303.458 195.782C305.552 196.221 307.645 196.661 309.739 197.1C310.182 197.193 310.695 197.27 311.042 196.98C311.479 196.614 311.345 195.859 310.923 195.476C310.501 195.092 309.906 194.981 309.344 194.885C307.561 194.581 305.778 194.278 303.994 193.974C303.612 193.909 303.216 193.844 302.842 193.946C302.467 194.047 302.122 194.364 302.12 194.752M347.552 205.691C347.147 205.973 347.182 206.625 347.494 207.007C347.806 207.389 348.296 207.569 348.761 207.732C350.436 208.319 352.111 208.907 353.786 209.494C354.112 209.608 354.452 209.724 354.796 209.685C355.14 209.646 355.487 209.402 355.523 209.058C355.576 208.563 355.027 208.244 354.565 208.059C352.651 207.293 350.737 206.527 348.823 205.761C348.412 205.596 347.916 205.439 347.552 205.691M373.887 214.295C371.886 213.709 369.885 213.122 367.884 212.535C367.643 212.464 367.383 212.394 367.145 212.476C366.682 212.637 366.596 213.311 366.867 213.72C367.138 214.128 367.625 214.328 368.085 214.497C369.506 215.017 370.958 215.453 372.43 215.801C372.953 215.925 373.529 216.032 374.008 215.789C374.487 215.545 374.715 214.793 374.287 214.468C374.171 214.379 374.027 214.337 373.887 214.295M316.441 208.145C316.923 208.259 317.468 208.363 317.883 208.092C318.297 207.821 318.29 207.016 317.798 206.952C315.803 206.691 313.841 206.177 311.974 205.425C311.473 205.224 310.938 205 310.41 205.115C309.882 205.23 309.443 205.864 309.735 206.318C309.908 206.588 310.25 206.682 310.562 206.756C312.521 207.219 314.481 207.682 316.441 208.145ZM335.358 186.856C336.13 187.726 337.578 187.89 338.525 187.214C338.68 187.103 338.83 186.961 338.87 186.774C338.91 186.591 338.838 186.405 338.767 186.232C338.434 185.424 337.796 184.456 336.951 184.681C336.604 184.774 336.339 185.062 335.999 185.181C335.762 185.264 335.491 185.264 335.282 185.405C334.828 185.714 334.994 186.445 335.358 186.856M321.14 244.331C320.656 244.219 320.141 244.37 319.72 244.634C319.49 244.778 319.275 244.964 319.163 245.21C319.061 245.433 319.052 245.69 319.097 245.931C319.302 247.022 320.808 247.638 321.679 246.95C322.55 246.262 322.222 244.582 321.14 244.331M329.274 217.878C329.654 217.591 329.771 217.011 329.533 216.599C329.419 216.403 329.235 216.248 329.023 216.169C328.386 215.934 327.609 216.564 327.708 217.236C327.807 217.907 328.732 218.287 329.274 217.878M324.492 202.266C324.709 202.257 324.941 202.244 325.117 202.117C325.293 201.989 325.372 201.704 325.214 201.554C324.08 201.382 322.947 201.21 321.813 201.038C321.907 201.569 322.378 201.969 322.89 202.138C323.401 202.307 323.953 202.288 324.492 202.266ZM343.793 206.847C344.225 206.898 344.389 206.2 344.077 205.897C343.765 205.595 343.276 205.601 342.842 205.628C342.408 205.656 341.919 205.665 341.605 205.365C341.603 206.334 342.831 206.731 343.793 206.847L343.793 206.847Z" fill="white"/>
</svg>
